<?xml version="1.0" encoding="utf-8"?>
<!-- Generator: Adobe Illustrator 21.1.0, SVG Export Plug-In . SVG Version: 6.00 Build 0)  -->
<svg version="1.0" id="Layer_1" xmlns="http://www.w3.org/2000/svg" xmlns:xlink="http://www.w3.org/1999/xlink" x="0px" y="0px"
	 viewBox="0 0 120 30" style="enable-background:new 0 0 120 30;" xml:space="preserve">
<style type="text/css">
	.st0{fill:#A0A0A0;}
</style>
<g id="rss" transform="matrix(1,0,0,-1,212.61017,1346.1695)">
	<path id="path2993" class="st0" d="M-204.4,1320.3c0-1.1-0.4-2.1-1.2-2.9s-1.8-1.2-2.9-1.2s-2.1,0.4-2.9,1.2
		c-0.8,0.8-1.2,1.8-1.2,2.9s0.4,2.1,1.2,2.9s1.8,1.2,2.9,1.2s2.1-0.4,2.9-1.2C-204.8,1322.4-204.4,1321.4-204.4,1320.3z
		 M-193.5,1317.6c0-0.4-0.1-0.7-0.4-1c-0.3-0.3-0.6-0.4-1-0.4h-2.9c-0.4,0-0.7,0.1-0.9,0.4c-0.3,0.2-0.4,0.5-0.4,0.9
		c-0.3,3.3-1.6,6-3.9,8.3c-2.3,2.3-5.1,3.6-8.3,3.9c-0.4,0-0.6,0.2-0.9,0.4s-0.4,0.6-0.4,0.9v2.9c0,0.4,0.1,0.7,0.4,1
		c0.2,0.2,0.5,0.4,0.9,0.4h0.1c2.3-0.2,4.4-0.8,6.5-1.7c2.1-1,3.9-2.2,5.5-3.9c1.6-1.6,2.9-3.4,3.9-5.5
		C-194.3,1322.1-193.7,1319.9-193.5,1317.6z M-182.6,1317.6c0-0.4-0.1-0.7-0.4-1c-0.3-0.3-0.6-0.4-1-0.4h-3c-0.4,0-0.7,0.1-0.9,0.4
		s-0.4,0.6-0.4,0.9c-0.2,3.1-0.9,6-2.2,8.7s-2.9,5.1-4.9,7.2c-2,2-4.4,3.7-7.2,4.9s-5.6,2-8.7,2.2c-0.4,0-0.7,0.2-0.9,0.4
		c-0.2,0.3-0.4,0.6-0.4,0.9v3c0,0.4,0.1,0.7,0.4,1c0.3,0.3,0.6,0.4,0.9,0.4h0.1c3.7-0.2,7.3-1,10.7-2.6c3.4-1.5,6.4-3.6,9.1-6.3
		c2.7-2.6,4.7-5.7,6.3-9.1C-183.7,1324.9-182.8,1321.3-182.6,1317.6z"/>
</g>

<path id="White_2_" class="st0" d="M58.4,0H31.7c-1,0-1.7,0.7-1.7,1.7v26.7c0,0.9,0.7,1.7,1.7,1.7H46V18.4h-3.9v-4.5H46v-3.3
	c0-3.9,2.4-6,5.8-6c1.7,0,3.1,0.1,3.5,0.2v4.1h-2.4c-1.9,0-2.3,0.9-2.3,2.2V14h4.5l-0.6,4.5h-3.9V30h7.6c0.9,0,1.7-0.7,1.7-1.7V1.7
	C60,0.7,59.3,0,58.4,0z"/>
<path class="st0" d="M69.4,27.3c11.3,0,17.5-9.5,17.5-17.7c0-0.3,0-0.5,0-0.8c1.2-0.9,2.3-2,3.1-3.2c-1.1,0.5-2.3,0.8-3.5,1
	c1.3-0.8,2.3-2,2.7-3.4c-1.2,0.7-2.5,1.2-3.9,1.5C82.9,2.1,79,2,76.5,4.4c-1.6,1.5-2.3,3.8-1.8,6c-5-0.2-9.6-2.6-12.7-6.5
	c-1.6,2.8-0.8,6.5,1.9,8.3c-1,0-1.9-0.3-2.8-0.8v0.1c0,3,2.1,5.5,4.9,6.1c-0.9,0.3-1.9,0.3-2.8,0.1C64,20.2,66.3,22,69,22
	c-2.2,1.7-4.9,2.7-7.6,2.7c-0.5,0-1,0-1.5-0.1C62.8,26.4,66.1,27.3,69.4,27.3"/>
<g>
	<path class="st0" d="M105,18.5l13.3-11.9H91.9h-0.2L105,18.5z M120,8.4c0-0.2,0-0.5-0.2-0.7l-9.5,8.4l9.3,8.1
		c0.2-0.2,0.2-0.5,0.2-1L120,8.4z M90.2,7.7C90.2,8,90,8.2,90,8.4v15.1c0,0.2,0,0.5,0.2,0.7l9.5-8.1L90.2,7.7L90.2,7.7z"/>
	<path class="st0" d="M109,17.5l-4,3.6l-4-3.6l-9.3,7.9h26.2L109,17.5z"/>
</g>
</svg>
