<?xml version="1.0" encoding="utf-8"?>
<!-- Generator: Adobe Illustrator 21.0.2, SVG Export Plug-In . SVG Version: 6.00 Build 0)  -->
<svg version="1.1" id="Layer_1" xmlns="http://www.w3.org/2000/svg" xmlns:xlink="http://www.w3.org/1999/xlink" x="0px" y="0px"
	 viewBox="0 0 216 216" style="enable-background:new 0 0 216 216;" xml:space="preserve">
<style type="text/css">
	.st0{fill:#f0f0f0;}
</style>
<g>
	<path class="st0" d="M108,128.4l96-85.7H13.7H12L108,128.4z M216,56.4c0-1.7,0-3.4-1.7-5.2l-68.6,60l66.9,58.3
		c1.7-1.7,1.7-3.4,1.7-6.9L216,56.4z M1.7,51.3C1.7,53,0,54.7,0,56.4v108c0,1.7,0,3.4,1.7,5.2l68.6-58.3L1.7,51.3L1.7,51.3z"/>
	<path class="st0" d="M137.1,121.6L108,147.3l-29.1-25.7L12,178.1h188.6L137.1,121.6z"/>
</g>
</svg>
