<?xml version="1.0" encoding="utf-8"?>
<!-- Generator: Adobe Illustrator 21.1.0, SVG Export Plug-In . SVG Version: 6.00 Build 0)  -->
<svg version="1.0" id="Layer_1" xmlns="http://www.w3.org/2000/svg" xmlns:xlink="http://www.w3.org/1999/xlink" x="0px" y="0px"
     viewBox="0 0 30 30" style="enable-background:new 0 0 30 30;" xml:space="preserve">
<style type="text/css">
    .st0{fill-rule:evenodd;clip-rule:evenodd;fill:#444444;}
    .st1{fill:#444444;}
</style>
<g>
    <path class="st0" d="M15,0.4c-8.3,0-15,6.7-15,15C0,22,4.3,27.6,10.3,29.6c0.7,0.1,1-0.3,1-0.7c0-0.4,0-1.5,0-2.8
        c-4.2,0.9-5-1.8-5-1.8c-0.7-1.7-1.7-2.2-1.7-2.2c-1.4-0.9,0.1-0.9,0.1-0.9C6.2,21.3,7,22.7,7,22.7c1.3,2.3,3.5,1.6,4.4,1.2
        c0.1-1,0.5-1.6,1-2c-3.3-0.4-6.8-1.7-6.8-7.4c0-1.6,0.6-3,1.5-4c-0.2-0.4-0.7-1.9,0.1-4c0,0,1.3-0.4,4.1,1.5
        c1.2-0.3,2.5-0.5,3.7-0.5c1.3,0,2.6,0.2,3.8,0.5c2.9-1.9,4.1-1.5,4.1-1.5c0.8,2.1,0.3,3.6,0.1,4c1,1,1.5,2.4,1.5,4
        c0,5.8-3.5,7-6.8,7.4c0.5,0.5,1,1.4,1,2.8c0,2,0,3.6,0,4.1c0,0.4,0.3,0.9,1,0.7C25.7,27.6,30,22,30,15.4C30,7.1,23.3,0.4,15,0.4z"
        />
    <path class="st1" d="M5.7,21.9c0,0.1-0.2,0.1-0.3,0c-0.1,0-0.2-0.2-0.1-0.2c0-0.1,0.1-0.1,0.3,0C5.7,21.7,5.7,21.8,5.7,21.9
        L5.7,21.9z M5.5,21.8"/>
    <path class="st1" d="M6.3,22.6c-0.1,0.1-0.2,0-0.3-0.1c-0.1-0.1-0.1-0.2,0-0.3c0.1-0.1,0.2,0,0.3,0.1C6.4,22.4,6.4,22.5,6.3,22.6
        L6.3,22.6z M6.2,22.4"/>
    <path class="st1" d="M6.9,23.4c-0.1,0.1-0.2,0-0.3-0.1c-0.1-0.1-0.1-0.3,0-0.4c0.1-0.1,0.2,0,0.3,0.1C7,23.2,7,23.4,6.9,23.4
        L6.9,23.4z M6.9,23.4"/>
    <path class="st1" d="M7.7,24.3c-0.1,0.1-0.3,0.1-0.4-0.1c-0.1-0.1-0.2-0.3-0.1-0.4c0.1-0.1,0.3-0.1,0.4,0.1
        C7.8,24,7.8,24.2,7.7,24.3L7.7,24.3z M7.7,24.3"/>
    <path class="st1" d="M8.8,24.8c0,0.1-0.2,0.2-0.4,0.1c-0.2-0.1-0.3-0.2-0.2-0.3c0-0.1,0.2-0.2,0.4-0.1C8.7,24.5,8.9,24.6,8.8,24.8
        L8.8,24.8z M8.8,24.8"/>
    <path class="st1" d="M10,24.8c0,0.1-0.1,0.2-0.3,0.2c-0.2,0-0.3-0.1-0.3-0.2c0-0.1,0.1-0.2,0.3-0.2C9.9,24.6,10,24.7,10,24.8
        L10,24.8z M10,24.8"/>
    <path class="st1" d="M11.2,24.6c0,0.1-0.1,0.2-0.3,0.3c-0.2,0-0.3,0-0.4-0.2c0-0.1,0.1-0.2,0.3-0.3C11,24.5,11.2,24.5,11.2,24.6
        L11.2,24.6z M11.2,24.6"/>
</g>
</svg>
