<?xml version="1.0" encoding="utf-8"?>
<!-- Generator: Adobe Illustrator 21.0.2, SVG Export Plug-In . SVG Version: 6.00 Build 0)  -->
<svg version="1.1" id="Layer_1" xmlns="http://www.w3.org/2000/svg" xmlns:xlink="http://www.w3.org/1999/xlink" x="0px" y="0px"
	 viewBox="0 0 216 216" style="enable-background:new 0 0 216 216;" xml:space="preserve">
<style type="text/css">
	.st0{fill:#444444;}
</style>
<path class="st0" d="M67.9,196.7c81.5,0,126.1-68.3,126.1-127.5c0-1.9,0-3.9-0.1-5.8c8.7-6.3,16.2-14.2,22.1-23.2
	c-8.1,3.6-16.7,6-25.5,7c9.3-5.6,16.2-14.4,19.5-24.8c-8.7,5.2-18.2,8.9-28.1,10.9c-16.8-18-44.9-18.9-62.7-1.9
	c-11.5,10.9-16.4,27.2-12.8,42.8C70.7,72.5,37.5,55.4,15,27.5C3.3,47.9,9.3,74.1,28.8,87.3c-7.1-0.2-14-2.1-20.1-5.6
	c0,0.2,0,0.4,0,0.6c0,21.3,14.9,39.7,35.6,43.9c-6.5,1.8-13.4,2.1-20,0.8c5.8,18.2,22.4,30.8,41.4,31.1
	c-15.7,12.5-35.1,19.2-55,19.2c-3.5,0-7-0.2-10.5-0.6C20.3,189.7,43.8,196.7,67.9,196.7"/>
</svg>
