<?xml version="1.0" encoding="utf-8"?>
<!-- Generator: Adobe Illustrator 21.1.0, SVG Export Plug-In . SVG Version: 6.00 Build 0)  -->
<svg version="1.1" id="Layer_1" xmlns="http://www.w3.org/2000/svg" xmlns:xlink="http://www.w3.org/1999/xlink" x="0px" y="0px"
	 viewBox="0 0 492.8 91.3" style="enable-background:new 0 0 492.8 91.3;" xml:space="preserve">
<style type="text/css">
	.st0{fill:#666766;}
</style>
<g>
	<path class="st0" d="M31.3,68.9l-0.9-4.7L30,64.1c-3.3,3.2-7.6,5.8-14.5,5.8c-10.9,0-12.6-7.4-12.6-12.8c0-8.7,5.4-12.6,16.2-13.3
		l10-0.7v-4.8c0-4.1-0.4-6.8-5.8-6.8c-4.2,0-6.3,0.6-6.3,5.8l-12.2-1c0-11.7,10.6-13.3,18.6-13.3c13.2,0,18.4,3.5,18.4,15.7v21
		c0,1.4,0.1,1.6,1.4,1.7l4.2,0.7v6.8H31.3z M29,50.3l-5.9,0.4c-5.1,0.3-6.9,1.6-6.9,5.1s2.1,4.8,4.9,4.8c2.9,0,5.9-1.6,7.9-3.1V50.3
		z"/>
	<path class="st0" d="M50,68.9V62l4.3-0.6c1.2-0.2,1.4-0.4,1.4-1.7V14c0-1-0.3-1.6-1.1-1.8l-4.8-1.6l1-7h18v56.2
		c0,1.4,0.1,1.6,1.4,1.7l4.2,0.6v6.8H50z"/>
	<path class="st0" d="M77.4,68.9V62l4.3-0.6c1.2-0.2,1.4-0.4,1.4-1.7V14c0-1-0.3-1.6-1.1-1.8l-4.8-1.6l1-7h18v56.2
		c0,1.4,0.1,1.6,1.4,1.7l4.2,0.6v6.8H77.4z"/>
	<path class="st0" d="M155.4,67.2c-3.5,1.4-7.6,2.7-12,2.7c-8.3,0-12-3.9-12-11.7v-27c0-0.5,0-0.9-0.7-0.9h-6.3v-5
		c6.8-0.9,8.7-3.5,9.8-12.4h5.1v10.6c0,0.5,0,0.9,0.7,0.9h12.7v6h-13.4v25.5c0,5.5,1.3,7.5,6.2,7.5c2.7,0,5.7-0.8,8.1-1.7
		L155.4,67.2z"/>
	<path class="st0" d="M186.4,68.9v-4.8l4.2-0.5c1.1-0.1,1.6-0.5,1.6-1.7V41.7c0-6.4-1.1-11.5-7.3-11.5c-5.2,0-10.3,2.9-13.7,5.6
		v26.1c0,1.4,0.1,1.6,1.4,1.7l4.8,0.6v4.7h-19.8v-4.8l4.3-0.5c1.2-0.2,1.4-0.4,1.4-1.7V11.6c0-1-0.3-1.6-1.1-1.8L157,8.1l0.8-4.6
		h13.3v25.7c4-2.9,9-5.7,15.6-5.7c9.3,0,13.3,6,13.3,15.8v22.6c0,1.4,0.1,1.6,1.4,1.7l4.9,0.6v4.7H186.4z"/>
	<path class="st0" d="M206.8,68.9v-4.8l5.7-0.5c1.2-0.1,1.4-0.4,1.4-1.7V32.4c0-1-0.3-1.6-1.1-1.8l-4.9-1.6l0.8-4.6h13.2v37.5
		c0,1.4,0.1,1.6,1.4,1.7l5.5,0.6v4.7H206.8z M216.7,14.8c-3.5,0-5.6-2-5.6-5.5c0-3.5,2.1-5.5,5.6-5.5s5.5,2,5.5,5.5
		C222.2,12.8,220.2,14.8,216.7,14.8z"/>
	<path class="st0" d="M258.8,68.9v-4.8l4.2-0.5c1.1-0.1,1.6-0.5,1.6-1.7V41.3c0-5.6-1.1-11.1-7.5-11.1c-4.9,0-9.6,2.4-13.4,5.5v26.1
		c0,1.4,0.1,1.6,1.4,1.7l4.8,0.6v4.7H230v-4.8l4.3-0.5c1.2-0.2,1.4-0.4,1.4-1.7V32.4c0-1-0.3-1.6-1.1-1.8l-4.9-1.6l0.8-4.6h11.3
		l0.7,5.1l0.3,0.1c4.5-3.2,9.8-6.1,16-6.1c10,0,13.7,6.4,13.7,15.8v22.5c0,1.4,0.1,1.6,1.4,1.7l4.9,0.6v4.7H258.8z"/>
	<path class="st0" d="M315.2,30.5c1.8,2.3,3.2,4.9,3.2,9c0,10.2-7.9,15.9-18,15.9c-2.9,0-5.5-0.3-7.4-1l-3.9,7.5l10.6,0.6
		c15.6,0.9,22.6,1.6,22.6,11.9c0,8.6-7.4,13.9-22.4,13.9c-15,0-20.2-4.1-20.2-10.6c0-4.2,2.3-6.8,5.3-9.8c-2.4-0.8-3.8-2.3-3.8-4.7
		c0-1.5,0.7-2.9,1.9-4.8c1.4-2,3.2-4.2,4.8-6.2c-3.8-2.1-6.5-6.4-6.5-12.3c0-9.7,7-16.5,18.8-16.5c3.1,0,5.9,0.3,7.7,0.9h15.4v5.5
		L315.2,30.5z M291.4,69.3c-1.6,1.6-3.8,4.2-3.8,7.2c0,4.7,4.8,5.7,13.3,5.8c4.6,0,13.4-0.7,13.4-7.3c0-4.1-3.4-4.4-9-4.9
		L291.4,69.3z M300.4,29.8c-6.3,0-10.8,3.1-10.8,9.9c0,5.1,2.9,9.3,10.6,9.3c6.5,0,10.6-3.8,10.6-9.8
		C310.7,33.3,306.9,29.8,300.4,29.8z"/>
	<path class="st0" d="M352.9,36.8l-1-5.4c-0.1-0.6-0.2-1-0.9-1.1c-1.2-0.4-3.8-1-6.8-1c-6.3,0-9.2,2.8-9.2,6.5c0,4.9,5.2,6,10.8,7.4
		c6.8,1.7,14.1,3.8,14.1,13.2c0,10-8.4,13.5-17.6,13.5c-7,0-14.1-2-15.7-2.9V55.5l5.8,0.3l1,6c0.1,0.6,0.3,1,1,1.2
		c1.1,0.4,4.2,1.4,8.5,1.4c5.8,0,9.5-2.2,9.5-6.8c0-5.2-4.9-6.4-10.5-7.7c-6.8-1.6-14.4-3.3-14.4-12.8c0-9.9,8.3-13.5,17.2-13.5
		c6.2,0,11.9,1.6,13.7,2.4v11.2L352.9,36.8z"/>
	<path class="st0" d="M418.6,31.7c1.6,2,3.2,4.8,3.2,8.7c0,9.6-7.5,15.2-18.4,15.2c-2.8,0-5.3-0.3-6.8-0.8l-2.9,4.6l8.5,0.5
		c15,1,23.8,1.4,23.8,12.9c0,10-8.7,15.6-23.8,15.6c-15.7,0-21.6-4-21.6-10.8c0-3.9,1.7-6,4.8-8.8c-2.9-1.2-3.8-3.4-3.8-5.7
		c0-1.9,1-3.6,2.5-5.3c1.6-1.6,3.3-3.3,5.4-5.2c-4.2-2.1-7.4-6.6-7.4-13c0-10,6.6-16.8,19.8-16.8c3.7,0,6,0.3,8,0.9h16.9v7.4
		L418.6,31.7z M392.9,71.2c-1.1,1.4-2.3,2.9-2.3,4.6c0,3.5,4.4,4.5,10.5,4.5c5,0,11.9-0.3,11.9-5c0-2.8-3.3-2.9-7.4-3.2L392.9,71.2z
		 M402.5,31.5c-4.8,0-8.3,2.3-8.3,8c0,4.2,2.3,7.2,8.1,7.2c4.8,0,8.1-2.9,8.1-7.4C410.3,34.2,407.4,31.5,402.5,31.5z"/>
	<path class="st0" d="M429.4,68.9V62l4.4-0.6c1.2-0.2,1.4-0.4,1.4-1.7V34.2c0-1-0.3-1.6-1.1-1.8l-4.7-1.6l1-7h17.9v35.9
		c0,1.4,0.1,1.6,1.4,1.7l4.4,0.6v6.8H429.4z M440.6,16.8c-4.9,0-7.8-2.9-7.8-7.8s2.9-7.6,7.8-7.6c5,0,7.9,2.7,7.9,7.6
		S445.6,16.8,440.6,16.8z"/>
	<path class="st0" d="M490.8,66.4c-3.7,1.8-9.2,3.5-14.1,3.5c-10.3,0-14.2-4.2-14.2-13.9V33.3c0-0.5,0-0.9-0.7-0.9h-6.1v-7.7
		c7.6-0.9,10.6-4.7,11.6-14.1h8.2v12.3c0,0.6,0,0.9,0.7,0.9h12.2v8.7h-12.9v20.7c0,5.1,1.2,7.1,5.9,7.1c2.4,0,4.9-0.6,7-1.4
		L490.8,66.4z"/>
</g>
</svg>
