<?xml version="1.0" encoding="utf-8"?>
<!-- Generator: Adobe Illustrator 21.1.0, SVG Export Plug-In . SVG Version: 6.00 Build 0)  -->
<svg version="1.1" id="Layer_1" xmlns="http://www.w3.org/2000/svg" xmlns:xlink="http://www.w3.org/1999/xlink" x="0px" y="0px"
	 viewBox="0 0 134.5 211.7" style="enable-background:new 0 0 134.5 211.7;" xml:space="preserve">
<style type="text/css">
	.st0{fill:#666766;}
	.st1{fill:#F05432;}
</style>
<g>
	<path class="st0" d="M134.5,88.1c0-5.5-4.5-10-10-10s-10,4.5-10,10l0.4,10.6c0,0.6,0,1.3,0,1.9c0,26.4-21.4,47.8-47.8,47.8
		S19.5,127,19.5,100.6c0-0.6,0-1.3,0-1.9l0.4-10.6c0-5.5-4.5-10-10-10s-10,4.5-10,10l0.1,10.6c0,0.9-0.1,1.8-0.1,2.7
		c0,37.1,30.1,67.3,67.3,67.3s67.3-30.1,67.3-67.3c0-0.9,0-1.8-0.1-2.7L134.5,88.1z"/>
	<rect x="27" y="192.2" class="st0" width="80.5" height="19.5"/>
	<rect x="57.5" y="164.7" class="st0" width="19.5" height="42"/>
</g>
<g>
	<path class="st1" d="M27.1,95.2c0,0.8-0.1,1.5-0.1,2.3c0,22.2,18,40.3,40.3,40.3s40.3-18,40.3-40.3c0-0.8,0-1.5-0.1-2.3H27.1z"/>
	<path class="st1" d="M107.5,40.3C107.5,18,89.5,0,67.3,0c-4.9,0-9.5,0.9-13.8,2.4l11.1,11.1c2.8-0.9,6-0.3,8.2,1.9
		c2.2,2.2,2.9,5.5,1.9,8.3l11.6,11.6c2.8-1,6-0.3,8.3,1.9c3.1,3.1,3.1,8.2,0,11.3c-3.1,3.1-8.2,3.1-11.3,0c-2.3-2.4-2.9-5.8-1.7-8.7
		L70.6,29v28.4c0.8,0.4,1.5,0.9,2.1,1.5c3.1,3.1,3.1,8.2,0,11.3c-3.1,3.1-8.2,3.1-11.3,0c-3.1-3.1-3.1-8.2,0-11.3
		c0.8-0.8,1.7-1.4,2.6-1.7V28.5c-1-0.4-1.8-1-2.6-1.7c-2.4-2.4-2.9-5.8-1.7-8.7L47.9,6.2l0,0l-0.8-0.8c-12,7-20.1,19.9-20.1,34.8
		c0,0.1,0,0.1,0,0.2h0v42.3h80.5V40.4h0C107.5,40.4,107.5,40.3,107.5,40.3z"/>
</g>
</svg>
