<?xml version="1.0" encoding="utf-8"?>
<svg version="1.1"
  xmlns="http://www.w3.org/2000/svg"
  xmlns:xlink="http://www.w3.org/1999/xlink"
  viewBox="0 0 100 40"
  enable-background="new 0 0 100 40">

  <style type="text/css">
    .lightstroke {fill:none;stroke:#e0e0e0;stroke-linecap:round;}
    .lightfill   {fill:#e0e0e0;}
    .lightboth   {fill:#e0e0e0;stroke:#e0e0e0;stroke-linejoin:round;}

    .darkstroke  {fill:none;stroke:#222222;stroke-linecap:round;}
    .darkfill    {fill:#222222;}
    .darkboth    {fill:#222222;stroke:#222222;stroke-linejoin:round;}
  </style>

  <g id="play-light">
    <polygon class="lightfill" points="0,0 0,20 16.1,10 "/>
  </g>

  <g id="pause-light">
    <rect class="lightfill" x="20" y="0.9" width="5.8" height="18.2"/>
    <rect class="lightfill" x="30.8" y="0.9" width="5.8" height="18.2"/>
  </g>

  <g id="volume-light">
    <polygon class="lightboth" points="50.4,2.8 45.3,7.1 40.5,7.1 40.5,12.8 45.3,12.8 50.4,17.2"/>
    <path class="lightstroke" d="M53,13.2c0.6-0.9,0.9-2,0.9-3.1c0-1.2-0.4-2.3-0.9-3.2"/>
    <path class="lightstroke" d="M55,4.8c1.1,1.5,1.7,3.3,1.7,5.3c0,2-0.6,3.8-1.7,5.2"/>
    <path class="lightstroke" d="M57,17.2c1.6-2,2.5-4.5,2.5-7.1c0-2.7-0.9-5.2-2.5-7.2"/>
  </g>

  <g id="mute-light">
    <polygon class="lightboth" points="70.4,2.8 65.3,7.1 60.6,7.1 60.6,12.8 65.3,12.8 70.4,17.2 "/>
    <line class="lightstroke" x1="73.7" y1="13" x2="79.5" y2="7.2"/>
    <line class="lightstroke" x1="79.5" y1="13" x2="73.7" y2="7.2"/>
  </g>

  <g id="download-light">
    <path class="lightfill" d="M96.1,7.8c0.1,0.3,0.1,0.6-0.2,0.8L90.5,14c-0.1,0.2-0.3,0.2-0.5,0.2s-0.4-0.1-0.5-0.2l-5.4-5.4
      c-0.2-0.2-0.3-0.5-0.2-0.8c0.1-0.3,0.4-0.5,0.7-0.5h3.1V1.9c0-0.2,0.1-0.4,0.2-0.5c0.2-0.2,0.3-0.2,0.5-0.2h3.1
      c0.2,0,0.4,0.1,0.5,0.2c0.2,0.2,0.2,0.3,0.2,0.5v5.4h3.1C95.7,7.3,96,7.5,96.1,7.8z"/>
    <path class="lightfill" d="M99.6,10.4c0.1,0,0.2,0,0.3,0.1c0.1,0.1,0.1,0.2,0.1,0.3v6.9c0,0.1,0,0.2-0.1,0.3c-0.1,0.1-0.2,0.1-0.3,0.1
      H80.4c-0.1,0-0.2,0-0.3-0.1C80,17.9,80,17.8,80,17.7v-6.9c0-0.1,0-0.2,0.1-0.3c0.1-0.1,0.2-0.1,0.3-0.1h2.3c0.1,0,0.2,0,0.3,0.1
      c0.1,0.1,0.1,0.2,0.1,0.3V15h13.8v-4.2c0-0.1,0-0.2,0.1-0.3c0.1-0.1,0.2-0.1,0.3-0.1H99.6z"/>
  </g>

  <g id="play-dark">
    <polygon class="darkfill" points="0,20 0,40 16.1,30 "/>
  </g>

  <g id="pause-dark">
    <rect class="darkfill" x="20" y="20.9" width="5.8" height="18.2"/>
    <rect class="darkfill" x="30.8" y="20.9" width="5.8" height="18.2"/>
  </g>

  <g id="volume-dark">
    <polygon class="darkboth" points="50.4,22.8 45.3,27.1 40.5,27.1 40.5,32.8 45.3,32.8 50.4,37.2"/>
    <path class="darkstroke" d="M53,33.2c0.6-0.9,0.9-2,0.9-3.1c0-1.2-0.4-2.3-0.9-3.2"/>
    <path class="darkstroke" d="M55,24.8c1.1,1.5,1.7,3.3,1.7,5.3c0,2-0.6,3.8-1.7,5.2"/>
    <path class="darkstroke" d="M57,37.2c1.6-2,2.5-4.5,2.5-7.1c0-2.7-0.9-5.2-2.5-7.2"/>
  </g>

  <g id="mute-dark">
    <polygon class="darkboth" points="70.4,22.8 65.3,27.1 60.6,27.1 60.6,32.8 65.3,32.8 70.4,37.2 "/>
    <line class="darkstroke" x1="73.7" y1="33" x2="79.5" y2="27.2"/>
    <line class="darkstroke" x1="79.5" y1="33" x2="73.7" y2="27.2"/>
  </g>

  <g id="download-light">
    <path class="darkfill" d="M96.1,28.2c0.1,0.3,0.1,0.6-0.2,0.8l-5.4,5.4c-0.1,0.2-0.3,0.2-0.5,0.2s-0.4-0.1-0.5-0.2L84.1,29
      c-0.2-0.2-0.3-0.5-0.2-0.8c0.1-0.3,0.4-0.5,0.7-0.5h3.1v-5.4c0-0.2,0.1-0.4,0.2-0.5c0.2-0.2,0.3-0.2,0.5-0.2h3.1
      c0.2,0,0.4,0.1,0.5,0.2c0.2,0.2,0.2,0.3,0.2,0.5v5.4h3.1C95.7,27.7,96,27.8,96.1,28.2z"/>
    <path class="darkfill" d="M99.6,30.8c0.1,0,0.2,0,0.3,0.1c0.1,0.1,0.1,0.2,0.1,0.3v6.9c0,0.1,0,0.2-0.1,0.3c-0.1,0.1-0.2,0.1-0.3,0.1
      H80.4c-0.1,0-0.2,0-0.3-0.1C80,38.3,80,38.2,80,38.1v-6.9c0-0.1,0-0.2,0.1-0.3c0.1-0.1,0.2-0.1,0.3-0.1h2.3c0.1,0,0.2,0,0.3,0.1
      s0.1,0.2,0.1,0.3v4.2h13.8v-4.2c0-0.1,0-0.2,0.1-0.3s0.2-0.1,0.3-0.1H99.6z"/>
  </g>
</svg>
