<?xml version="1.0" encoding="utf-8"?>
<svg version="1.1"
  xmlns="http://www.w3.org/2000/svg"
  xmlns:xlink="http://www.w3.org/1999/xlink"
  viewBox="0 0 80 40"
  enable-background="new 0 0 80 40">

  <style type="text/css">
    .lightstroke {fill:none;stroke:#e0e0e0;stroke-linecap:round;}
    .lightfill   {fill:#e0e0e0;}
    .lightboth   {fill:#e0e0e0;stroke:#e0e0e0;stroke-linejoin:round;}

    .darkstroke  {fill:none;stroke:#222222;stroke-linecap:round;}
    .darkfill    {fill:#222222;}
    .darkboth    {fill:#222222;stroke:#222222;stroke-linejoin:round;}
  </style>

  <g id="play-light">
    <polygon class="lightfill" points="0,0 0,20 16.1,10 "/>
  </g>

  <g id="pause-light">
    <rect class="lightfill" x="20" y="0.9" width="5.8" height="18.2"/>
    <rect class="lightfill" x="30.8" y="0.9" width="5.8" height="18.2"/>
  </g>

  <g id="volume-light">
    <polygon class="lightboth" points="50.4,2.8 45.3,7.1 40.5,7.1 40.5,12.8 45.3,12.8 50.4,17.2"/>
    <path class="lightstroke" d="M53,13.2c0.6-0.9,0.9-2,0.9-3.1c0-1.2-0.4-2.3-0.9-3.2"/>
    <path class="lightstroke" d="M55,4.8c1.1,1.5,1.7,3.3,1.7,5.3c0,2-0.6,3.8-1.7,5.2"/>
    <path class="lightstroke" d="M57,17.2c1.6-2,2.5-4.5,2.5-7.1c0-2.7-0.9-5.2-2.5-7.2"/>
  </g>

  <g id="mute-light">
    <polygon class="lightboth" points="70.4,2.8 65.3,7.1 60.6,7.1 60.6,12.8 65.3,12.8 70.4,17.2 "/>
    <line class="lightstroke" x1="73.7" y1="13" x2="79.5" y2="7.2"/>
    <line class="lightstroke" x1="79.5" y1="13" x2="73.7" y2="7.2"/>
  </g>


  <g id="play-dark">
    <polygon class="darkfill" points="0,20 0,40 16.1,30 "/>
  </g>

  <g id="pause-dark">
    <rect class="darkfill" x="20" y="20.9" width="5.8" height="18.2"/>
    <rect class="darkfill" x="30.8" y="20.9" width="5.8" height="18.2"/>
  </g>

  <g id="volume-dark">
    <polygon class="darkboth" points="50.4,22.8 45.3,27.1 40.5,27.1 40.5,32.8 45.3,32.8 50.4,37.2"/>
    <path class="darkstroke" d="M53,33.2c0.6-0.9,0.9-2,0.9-3.1c0-1.2-0.4-2.3-0.9-3.2"/>
    <path class="darkstroke" d="M55,24.8c1.1,1.5,1.7,3.3,1.7,5.3c0,2-0.6,3.8-1.7,5.2"/>
    <path class="darkstroke" d="M57,37.2c1.6-2,2.5-4.5,2.5-7.1c0-2.7-0.9-5.2-2.5-7.2"/>
  </g>

  <g id="mute-dark">
    <polygon class="darkboth" points="70.4,22.8 65.3,27.1 60.6,27.1 60.6,32.8 65.3,32.8 70.4,37.2 "/>
    <line class="darkstroke" x1="73.7" y1="33" x2="79.5" y2="27.2"/>
    <line class="darkstroke" x1="79.5" y1="33" x2="73.7" y2="27.2"/>
  </g>
</svg>
